<svg xmlns="http://www.w3.org/2000/svg" width="84" height="84" viewBox="0 0 84 84">
  <g id="Grupo_1195127" data-name="Grupo 1195127" transform="translate(-706 -1940.315)">
    <g id="Grupo_1195092" data-name="Grupo 1195092">
      <g id="Grupo_1194736" data-name="Grupo 1194736" transform="translate(0 261.396)">
        <g id="Grupo_1119665" data-name="Grupo 1119665" transform="translate(534.111 -3840.08)">
          <rect id="Rectángulo_402006" data-name="Rectángulo 402006" width="84" height="84" rx="5" transform="translate(171.889 5519)" fill="#c1c5cb"/>
        </g>
      </g>
      <g id="Grupo_1195091" data-name="Grupo 1195091" transform="translate(395.054 1679.624)">
        <path id="Trazado_1014847" data-name="Trazado 1014847" d="M326.894,321.316c0-2.173,0-4.184,0-6.194,0-1.925.294-2.217,2.251-2.218q15.727,0,31.455,0h1.592c.03-.491.072-.865.073-1.238q.007-6.508,0-13.016c-.006-2.832-1.26-4.083-4.088-4.087-5.026-.006-10.052,0-15.18,0-.039.364-.1.688-.1,1.012-.01,2.019,0,4.038-.006,6.057,0,1.735-.237,1.989-1.953,2.179a3.709,3.709,0,0,0-.492.144c0,.572,0,1.162,0,1.753-.007,1.983-.124,2.125-2.173,2.451,0,.635.019,1.307,0,1.977-.036,1-.548,1.562-1.348,1.533-.756-.027-1.2-.546-1.234-1.5-.025-.641,0-1.284,0-1.866-.138-.113-.2-.2-.268-.214-1.775-.256-1.863-.357-1.872-2.213,0-.637,0-1.274,0-1.843-.186-.111-.254-.185-.328-.192-1.974-.189-2.162-.392-2.164-2.368,0-2.231,0-4.462,0-6.906-.864,0-1.66.013-2.455,0-1.277-.026-1.683-.423-1.691-1.71q-.023-3.8,0-7.6c.008-1.214.41-1.627,1.608-1.677.8-.034,1.606-.006,2.539-.006,0-.8-.018-1.433,0-2.066.04-1.158.417-1.583,1.546-1.593q4.383-.04,8.766,0c1.053.01,1.458.455,1.52,1.5.02.343,0,.687.008,1.031s.04.668.066,1.06h22.376c0-.493,0-.949,0-1.4,0-1.847-.022-3.695.016-5.541a1.188,1.188,0,0,1,1.237-1.344c.808-.026,1.28.449,1.347,1.373.019.257.007.515.007.773q0,2.384,0,4.768v1.393c5.785-.07,9.614,2.416,11.076,8.285.662,0,1.376-.014,2.088,0,1.423.034,1.786.371,1.792,1.737q.021,4.768,0,9.536c-.007,1.315-.359,1.648-1.7,1.691-.681.022-1.363,0-2.124,0v16.553c.805,0,1.568-.022,2.328.005,1.119.04,1.478.374,1.495,1.483q.044,2.963,0,5.928c-.016,1.045-.359,1.359-1.406,1.434-.342.024-.687.011-1.031.011H325.409c-2.331,0-2.426-.094-2.428-2.366,0-1.547-.008-3.093,0-4.639.01-1.586.279-1.842,1.908-1.856C325.488,321.311,326.085,321.316,326.894,321.316Zm49.456-8.491c.02-.42.053-.8.053-1.173q0-9.017,0-18.034c-.007-4.54-2.839-7.428-7.384-7.436q-19.2-.035-38.4,0c-.364,0-.727.062-1.05.091v5.694h1.616c9.02,0,18.04-.012,27.06.019a7.614,7.614,0,0,1,2.764.43,5.8,5.8,0,0,1,3.865,5.812q.006,6.569,0,13.139c0,.462,0,.924,0,1.463Zm-46.8,2.751v5.649H376.34v-5.649Zm-3.9,11.927H380.2V324.01H325.641Zm8.09-32.88v6.49H340.2v-6.49Zm45.317-.169v7.6h1.165v-7.6Zm-45.24-11.925c-.25.631-.192,1.018.507,1.02,1.962.006,3.924,0,5.915,0v-1.022Zm2.323,21.334c.025.573.045,1.021.065,1.476h1.532v-1.476Z" fill="#141a22"/>
        <path id="Trazado_1014848" data-name="Trazado 1014848" d="M370.486,492.311c-1.33,0-2.66.019-3.989-.011a2.033,2.033,0,0,1-1.215-.265,1.8,1.8,0,0,1-.594-1.268c.024-.346.5-.716.857-.96a1.709,1.709,0,0,1,.88-.1q4.118-.009,8.236,0c.086,0,.172,0,.257,0,.951.068,1.492.513,1.51,1.239.018.745-.6,1.324-1.567,1.35-1.457.038-2.917.01-4.375.01Z" transform="translate(-33.553 -172.557)" fill="#141a22"/>
      </g>
    </g>
  </g>
</svg>
