<svg xmlns="http://www.w3.org/2000/svg" xmlns:xlink="http://www.w3.org/1999/xlink" width="131.153" height="109.229" viewBox="0 0 131.153 109.229">
  <defs>
    <clipPath id="clip-path">
      <rect id="Rectángulo_461362" data-name="Rectángulo 461362" width="131.153" height="109.228" fill="none"/>
    </clipPath>
  </defs>
  <g id="Grupo_1195125" data-name="Grupo 1195125" transform="translate(13543.879 11987)">
    <g id="Grupo_1195090" data-name="Grupo 1195090" transform="translate(-13543.879 -11987)">
      <g id="Grupo_1194416" data-name="Grupo 1194416" clip-path="url(#clip-path)">
        <path id="Trazado_1013366" data-name="Trazado 1013366" d="M15.087,23.552C26.346,9.952,38.328,1.99,56.368.27c14.732-1.4,29.755,2.672,41.2,12.157q.771.634,1.518,1.3t1.47,1.35q.722.689,1.419,1.4t1.367,1.454q.67.74,1.313,1.5t1.258,1.551q.614.787,1.2,1.6t1.141,1.638q.555.83,1.08,1.679t1.018,1.717q.493.868.954,1.753t.889,1.787q.429.9.824,1.819t.757,1.847q.36.931.688,1.874t.62,1.9c.664,2.169,1,4.4,1.521,6.6.937.05,1.892.064,2.826.157,2.271.009,9.581-.477,11.272.373a1.49,1.49,0,0,1,.43,1.213,1.353,1.353,0,0,1-.778,1.009c-.9.487-10.91.125-12.854.106.126,3.718.295,7.43.055,11.148-.779,12.117-5.053,24.843-13.482,33.792-11.3,12-22.87,15.8-39.067,16.214a69.375,69.375,0,0,1-30.971-6.571,29.346,29.346,0,0,1-6.109-3.321c-5.31-.38-10.835-.085-16.166-.057a38.679,38.679,0,0,1-7.077-.2,1,1,0,0,1-.531-.843c-.261-1.377-.316-7.334.508-8.315a1.466,1.466,0,0,1,1.077-.5c2.255-.094,4.364.62,6.846.183.1-.017.2-.038.3-.057-1.3-2.356-3.287-4.4-4.836-6.607q-.433-.623-.845-1.261t-.8-1.29q-.388-.652-.754-1.317T4.944,77.7q-.341-.678-.659-1.367t-.611-1.39q-.293-.7-.561-1.41T2.6,72.108q-.243-.719-.46-1.446T1.732,69.2q-.192-.735-.358-1.475t-.305-1.486q-.139-.746-.253-1.5t-.2-1.5Q.529,62.484.47,61.727T.376,60.212a12.507,12.507,0,0,1-.332-3.152C0,53.577.1,50.089.078,46.606c-.033-6.625-.915-13.6,4.164-18.738a14.972,14.972,0,0,1,10.845-4.315" transform="translate(0 0)" fill="#06395f"/>
        <path id="Trazado_1013367" data-name="Trazado 1013367" d="M256.929,88.944c1.772.391,3.121.662,4.38,2.045-1.181.784-3,.673-4.388.732Z" transform="translate(-151.013 -52.28)" fill="#fff"/>
        <path id="Trazado_1013368" data-name="Trazado 1013368" d="M64.1,151.669l3.179.019c.039,1.893.338,4.32-.4,6.1-.122.044-.242.09-.364.133a2.112,2.112,0,0,1-1.895-.111c-1.095-1.414-.579-4.4-.524-6.146" transform="translate(-37.577 -89.148)" fill="#fff"/>
        <path id="Trazado_1013369" data-name="Trazado 1013369" d="M188.049,21.6a6.661,6.661,0,0,1,2.267.172,4.092,4.092,0,0,1,2.468,1.975,3.03,3.03,0,0,1,.122,2.55,4.44,4.44,0,0,1-2.7,2.338,5.177,5.177,0,0,1-2.363-.065,3.638,3.638,0,0,1-2.244-1.747,3.406,3.406,0,0,1-.206-2.7,4.232,4.232,0,0,1,2.657-2.52" transform="translate(-108.861 -12.685)" fill="#fff"/>
        <path id="Trazado_1013370" data-name="Trazado 1013370" d="M261.175,93.906c.942,2.043.439,6.5.437,8.89.048,1.681.476,3.677-.771,4.975-.756.787-2.172,1.959-3.338,1.9-.361-.017-.379-.163-.606-.411-.406-1.858-.078-4.12-.084-6.043l-.026-8.584c1.385-.059,3.207.052,4.388-.732" transform="translate(-150.879 -55.196)" fill="#ffcb77"/>
        <path id="Trazado_1013371" data-name="Trazado 1013371" d="M160.323,46.55c5.044-.22,10.146-.064,15.2-.062a65.4,65.4,0,0,1,8.122.052,4.087,4.087,0,0,1,2.909,1.451,3.837,3.837,0,0,1,.548,2.683c-.836.394-2.555.2-3.52.2l-17.167-.022c-3.123,0-6.392.189-9.5-.117l-.2-.327a2.948,2.948,0,0,1,.226-1.005,4.9,4.9,0,0,1,3.386-2.853" transform="translate(-92.112 -27.259)" fill="#fff"/>
        <path id="Trazado_1013372" data-name="Trazado 1013372" d="M237.043,74.478c1.521,0,3.61-.252,4.931.585A2.3,2.3,0,0,1,243,76.8c-.325,4.769-.164,9.63-.169,14.412.017,2.414.642,11.433-.63,13.073-1,1.287-3.663.954-5.1.96l-.045-13.759-.01-13.664Z" transform="translate(-139.329 -43.756)" fill="#ffcb77"/>
        <path id="Trazado_1013373" data-name="Trazado 1013373" d="M16.029,224.983a2.343,2.343,0,0,1,.427-1.358,65.6,65.6,0,0,1,6.951-.013l36.835.046,0,4.625-27.817-.063c-5.417,0-10.86.09-16.275-.074a17.812,17.812,0,0,0-.124-3.163" transform="translate(-9.422 -131.381)" fill="#ffcb77"/>
        <path id="Trazado_1013374" data-name="Trazado 1013374" d="M16.029,224.983a2.343,2.343,0,0,1,.427-1.358,65.6,65.6,0,0,1,6.951-.013c1.462.057,7.26-.082,8.073.538-2.29,1.275-12.853,1.43-15.451.832" transform="translate(-9.422 -131.381)" fill="#fef9ef"/>
        <path id="Trazado_1013375" data-name="Trazado 1013375" d="M55.21,151.744c1.357-.044,2.718-.049,4.076-.071.037,3.5.561,7.754-1.675,10.715-2.535,3.358-6.651,2.255-10.23,2.771-3.859.556-6.423,3.117-8.672,6.053l-.042-5.385.012-14.013q4.065-.036,8.13-.017c-.039,2.36-.518,5.96,1.122,7.844a3.188,3.188,0,0,0,2.457,1.078,4.876,4.876,0,0,0,3.486-1.165c1.462-1.563.916-4.3.924-6.264a1.879,1.879,0,0,1,.412-1.546" transform="translate(-22.727 -89.151)" fill="#fff"/>
        <path id="Trazado_1013376" data-name="Trazado 1013376" d="M.911,146.068a4.963,4.963,0,0,0,3.844,2.483c2.949.4,6.189-.086,9.184-.021,0,4.465.521,23.824-.519,26.85-1.3-2.356-3.287-4.4-4.836-6.607q-.433-.623-.845-1.261t-.8-1.29q-.388-.652-.754-1.317t-.707-1.343q-.341-.678-.659-1.367t-.61-1.39q-.293-.7-.561-1.41t-.512-1.429q-.243-.719-.46-1.446t-.409-1.462q-.192-.735-.358-1.475T1.6,152.1q-.139-.746-.253-1.5t-.2-1.5q-.087-.754-.147-1.511t-.094-1.515" transform="translate(-0.535 -85.856)" fill="#feb3b1"/>
        <path id="Trazado_1013377" data-name="Trazado 1013377" d="M5.983,87.98c-.011-4.2-.176-8.465.06-12.653a12.609,12.609,0,0,1,4.384-9.345A11.441,11.441,0,0,1,16.6,63.155c4-.515,8.381-.185,12.418-.173l22.455.087,30.329.115c5.5.007,11.128-.242,16.615.093.319.418.148,1.6.146,2.16q-9.606.056-19.211,0c-3.231,0-7.54-.347-10.662.313-4.828.752-12.148.257-17.263.256-10.378,0-20.844.249-31.211-.182a10.025,10.025,0,0,0-7.464,1.449,12.33,12.33,0,0,0-5.164,8.167c-.777,3.947-.349,8.444-.305,12.47Z" transform="translate(-3.478 -36.952)" fill="#fff"/>
        <path id="Trazado_1013378" data-name="Trazado 1013378" d="M5.878,123.49l1.3-.07,38.728-.007c5.6.009,13.965-.522,19.211.467a19.81,19.81,0,0,1,10.547,5.08c4.009,4.022,3.87,9.056,3.892,14.335l.024,8.6c.011,5.573.052,10.081,5,13.735a11.172,11.172,0,0,0,6.967,2.35,6.828,6.828,0,0,0,5.128-2.27,6.658,6.658,0,0,0,1.725-3.245c-.043,2.156-.2,4.043-1.5,5.869a7.89,7.89,0,0,1-5.374,3.118,15.889,15.889,0,0,1-11.82-2.785,13.3,13.3,0,0,1-4.591-6.431c-.775-2.482-.637-5.261-.629-7.83l.044-11.166a42.552,42.552,0,0,0-.136-6.491c-.236-1.536-1.053-3.317-2.649-3.855-1.893-.638-8.9-.279-11.413-.3q-16.807-.135-33.615-.073c-5.8.012-11.731.295-17.516.012a5.015,5.015,0,0,1-2.623-.552c-1.275-1.171-.7-6.652-.687-8.491" transform="translate(-3.372 -72.461)" fill="#17c3b2"/>
        <path id="Trazado_1013379" data-name="Trazado 1013379" d="M20.132,130.511c5.408.005,46.242-.47,47.906.292.288.37.536.6.434,1.116-.116.59-.475.745-.931,1.046-5.785.015-46.4.552-48.026-.151-.306-.406-.437-.547-.327-1.093a2.24,2.24,0,0,1,.944-1.21" transform="translate(-11.256 -76.629)" fill="#06395f"/>
        <path id="Trazado_1013380" data-name="Trazado 1013380" d="M36.6,23.552C47.858,9.952,59.84,1.99,77.88.27c14.732-1.4,29.755,2.672,41.2,12.157q.771.634,1.518,1.3t1.47,1.35q.722.689,1.419,1.4t1.367,1.454q.67.74,1.313,1.5t1.258,1.551q.614.787,1.2,1.6t1.141,1.638q.555.83,1.08,1.679t1.018,1.717q.493.868.954,1.753t.889,1.787q.429.9.824,1.819t.757,1.847q.36.931.688,1.874t.62,1.9c.664,2.169,1,4.4,1.521,6.6.937.05,1.892.064,2.826.157-2.063.138-4.2-.01-6.264-.047.038-2.914.352-6.235-1.281-8.807-1.24-1.95-2.619-1.642-4.586-2.154a1.7,1.7,0,0,1-1.095-.782,5.221,5.221,0,0,0-1.286-3.823c-1.871-1.857-4.8-1.69-7.214-1.654l.016-2.915c.01-2.4-.191-4.918-2.046-6.678-2.549-2.418-6.965-1.839-10.206-1.8a6.28,6.28,0,0,0,.949-1.6,6.6,6.6,0,0,0-.09-5.209,6.761,6.761,0,0,0-4.046-3.2,6.91,6.91,0,0,0-5.584.733A6.074,6.074,0,0,0,95.341,11.1,7.126,7.126,0,0,0,96.7,16.656c-3.309.063-7.842-.69-10.6,1.51-1.745,1.392-2.126,3.3-2.375,5.388Z" transform="translate(-21.512 0)" fill="#feb3b1"/>
        <path id="Trazado_1013381" data-name="Trazado 1013381" d="M135.079,116.572h4.327c.126,3.718.295,7.43.056,11.148-.779,12.117-5.054,24.843-13.483,33.792-11.3,12-22.87,15.8-39.067,16.214a69.378,69.378,0,0,1-30.972-6.571,29.353,29.353,0,0,1-6.109-3.321c4.673-.394,22.2.872,25.038-.408a1.9,1.9,0,0,0,.4-1.007c.16-1.229.282-7.013-.281-7.78-2.56-.81-12.2-.282-15.395-.275l-22.331-.016C43.285,140.3,51.594,150.884,58,144.277c3.513-3.622,3.072-8.559,3.046-13.188,4.972-.038,9.95.082,14.923.089,4.038.006,8.123-.134,12.154.061.7.034,1.445-.011,1.872.613.756,1.1.493,3.37.479,4.679-.055,5.024-.535,17.484.574,21.707q.128.484.286.959t.343.939q.186.465.4.917t.455.891q.241.438.508.862t.56.829q.292.406.609.794t.656.755a16.352,16.352,0,0,0,11.827,5.021c3.5.132,7.046-.331,9.69-2.883a10.078,10.078,0,0,0,2.806-5.07c.839-3.684.415-8.093.414-11.864l.012-17.925c2.371.024,5.1.255,6.922-1.586,1.511-1.529,1.543-3.564,1.53-5.566,1.881-.025,3.65-.268,5.065-1.639,1.934-1.874,1.967-4.6,1.945-7.1" transform="translate(-21.902 -68.519)" fill="#feb3b1"/>
        <path id="Trazado_1013382" data-name="Trazado 1013382" d="M70.406,69.286c3.122-.66,7.431-.317,10.662-.313q9.606.053,19.211,0,.175,30.759-.062,61.517a6.659,6.659,0,0,1-1.725,3.245A6.828,6.828,0,0,1,93.364,136a11.171,11.171,0,0,1-6.967-2.35c-4.943-3.654-4.984-8.162-5-13.735l-.024-8.6c-.021-5.28.117-10.313-3.892-14.335a19.81,19.81,0,0,0-10.547-5.08c-5.246-.989-13.611-.458-19.211-.467L9,91.446c-.044-4.026-.472-8.522.305-12.47a12.33,12.33,0,0,1,5.164-8.167,10.025,10.025,0,0,1,7.464-1.449c10.366.431,20.833.179,31.211.182,5.116,0,12.436.5,17.263-.256" transform="translate(-5.197 -40.487)" fill="#76dfcb"/>
        <path id="Trazado_1013383" data-name="Trazado 1013383" d="M63.192,88.53l9.9-.066a49.839,49.839,0,0,1,6.337.111,1.587,1.587,0,0,1,.78.864,2.4,2.4,0,0,1-.614,1.51c-2.405.138-14.192.375-15.865-.1-.6-.169-.66-.344-.995-.83a2.2,2.2,0,0,1,.452-1.49" transform="translate(-36.872 -51.971)" fill="#06395f"/>
        <path id="Trazado_1013384" data-name="Trazado 1013384" d="M40.513,69.939c10.366.431,20.833.179,31.211.182,5.116,0,12.436.5,17.263-.256a4.5,4.5,0,0,1,.135,2.409.6.6,0,0,1-.525.419c-1.71.435-11.252.073-13.562.067-10.682-.026-21.417.2-32.094-.042a4.826,4.826,0,0,1-2.29-.273,6.221,6.221,0,0,1-.138-2.507" transform="translate(-23.779 -41.065)" fill="#06395f"/>
        <path id="Trazado_1013385" data-name="Trazado 1013385" d="M184.265,86.3a7.435,7.435,0,0,1,3.945,1.282,6.66,6.66,0,0,1,1.448,1.405,6.555,6.555,0,0,1,.379.559,6.637,6.637,0,0,1,.58,1.217q.113.318.194.646a6.712,6.712,0,0,1,.127.663,6.638,6.638,0,0,1,0,2q-.051.331-.135.655t-.2.638a6.643,6.643,0,0,1-.971,1.749,7.122,7.122,0,0,1-5.123,2.557,7.735,7.735,0,0,1-3.922-1.212q-.276-.182-.534-.39t-.493-.441q-.236-.232-.447-.487a6.6,6.6,0,0,1-.4-.528q-.185-.274-.343-.566t-.286-.6q-.128-.305-.226-.622t-.163-.641a6.25,6.25,0,0,1-.1-.648,6.315,6.315,0,0,1-.029-.655,6.205,6.205,0,0,1,.04-.655,6.286,6.286,0,0,1,.282-1.278,6.28,6.28,0,0,1,.239-.61,6.3,6.3,0,0,1,.662-1.129,7.528,7.528,0,0,1,5.477-2.914" transform="translate(-104.369 -50.727)" fill="#06395f"/>
        <path id="Trazado_1013386" data-name="Trazado 1013386" d="M186.9,92.584a5.655,5.655,0,0,1,2.372.187,4.833,4.833,0,0,1,2.663,2.52,3.747,3.747,0,0,1,.04,3.022,4.586,4.586,0,0,1-2.759,2.307,5.33,5.33,0,0,1-2.391-.11,4.179,4.179,0,0,1-2.425-2.1,4.032,4.032,0,0,1-.165-.383,4.139,4.139,0,0,1-.21-.807,4.124,4.124,0,0,1,0-1.248,4.082,4.082,0,0,1,.21-.807,4.746,4.746,0,0,1,2.665-2.583" transform="translate(-108.14 -54.397)" fill="#17c3b2"/>
      </g>
    </g>
  </g>
</svg>
