<svg xmlns="http://www.w3.org/2000/svg" xmlns:xlink="http://www.w3.org/1999/xlink" width="120.046" height="117.381" viewBox="0 0 120.046 117.381">
  <defs>
    <clipPath id="clip-path">
      <rect id="Rectángulo_461364" data-name="Rectángulo 461364" width="120.046" height="117.381" fill="none"/>
    </clipPath>
  </defs>
  <g id="Grupo_1195126" data-name="Grupo 1195126" transform="translate(13387.379 11991)">
    <g id="Grupo_1195089" data-name="Grupo 1195089" transform="translate(-13387.379 -11991)">
      <g id="Grupo_1194420" data-name="Grupo 1194420" clip-path="url(#clip-path)">
        <path id="Trazado_1013416" data-name="Trazado 1013416" d="M20.991,134.767c-.06-.026-.122-.049-.18-.079a18.564,18.564,0,0,1-3.8-3.362,60.192,60.192,0,0,1-14.221-22.65C-1.738,94.819-.788,77.8,5.881,64.755,13.875,49.115,25.865,40.682,42.3,35.33a51.78,51.78,0,0,0-.126,5.382,12.194,12.194,0,0,0-1.488,2.49c.121,2.267.392,4.366,2.189,5.986,1.447,1.3,2.985,1.446,4.823,1.4a27.923,27.923,0,0,0,6.088,9.251c-.2,3.9-.579,7.781-.767,11.677C47.4,73.91,41.861,76.487,36.269,78.949c-3.7,1.628-8.362,3.084-11.608,5.488a8.041,8.041,0,0,0-2.607,3.379A13.939,13.939,0,0,0,21.1,92.2c-.384,4.711-.08,9.618-.083,14.353Z" transform="translate(0 -20.245)" fill="#feb3b1"/>
        <path id="Trazado_1013417" data-name="Trazado 1013417" d="M70.358,15.085c.885-4.822,2.98-8.68,7.08-11.521C82.224.246,88.644-.651,94.3.443a17.841,17.841,0,0,1,11.517,7.314,14.842,14.842,0,0,1,2.558,8.407c2.915,1.183,5.96,2.275,8.741,3.743q1.1.589,2.182,1.223t2.127,1.316q1.05.681,2.069,1.406t2.007,1.494q.988.769,1.941,1.578t1.871,1.66q.918.85,1.8,1.739t1.722,1.815q.842.925,1.643,1.887t1.56,1.956q.759.995,1.475,2.021t1.386,2.082q.671,1.056,1.3,2.14t1.2,2.194q.578,1.11,1.107,2.243t1.01,2.289q.282.686.547,1.378t.514,1.391q.248.7.48,1.4t.446,1.415q.215.71.412,1.425t.377,1.435q.179.719.342,1.443t.307,1.451q.144.728.271,1.458t.236,1.465q.109.733.2,1.47t.164,1.474q.074.738.129,1.478t.093,1.48q.037.74.057,1.482t.021,1.483q0,.742-.015,1.483t-.051,1.482q-.035.741-.087,1.481T147.826,78q-.07.738-.159,1.474t-.2,1.47q-.106.734-.23,1.465t-.266,1.459q-.142.728-.3,1.452t-.336,1.445q-.177.72-.371,1.436t-.406,1.426q-.212.71-.441,1.416t-.475,1.405q-.247.7-.509,1.393t-.543,1.38q-.441,1.091-.931,2.161T141.634,99.5q-.539,1.047-1.124,2.068t-1.216,2.014q-.632.993-1.307,1.957t-1.395,1.9q-.719.932-1.48,1.83t-1.561,1.761a10.8,10.8,0,0,1-3.064,2.648,1.959,1.959,0,0,1-.508.131,4.058,4.058,0,0,1-1.129,2.97,2.246,2.246,0,0,1-1.469.462c-2.906.182-5.906.038-8.821.04H101.2l-52.152.1-.006-2.859L49.073,86.3c0-4.735-.3-9.642.083-14.353a13.939,13.939,0,0,1,.955-4.381,8.041,8.041,0,0,1,2.607-3.379c3.246-2.4,7.91-3.86,11.608-5.488,5.592-2.462,11.129-5.038,16.751-7.431.188-3.9.567-7.78.767-11.677a27.923,27.923,0,0,1-6.088-9.251c-1.839.044-3.377-.1-4.823-1.4-1.8-1.62-2.068-3.718-2.189-5.986a12.194,12.194,0,0,1,1.488-2.49,51.776,51.776,0,0,1,.126-5.382" transform="translate(-28.057 0)" fill="#06395f"/>
        <path id="Trazado_1013418" data-name="Trazado 1013418" d="M180.236,61.4a4.3,4.3,0,0,1-.789.978,1.786,1.786,0,0,1-1.407.43c-.486-.3-.476-.284-.637-.833a1.286,1.286,0,0,1,.557-.816l.613.414c.621-.062.8-.407,1.234-.826Z" transform="translate(-101.658 -34.809)" fill="#ffcb77"/>
        <path id="Trazado_1013419" data-name="Trazado 1013419" d="M181.338,55.6c0-.076.005-.153.006-.229.027-1.585-1.176-2.084-1.269-3.4l.263-.206a3.425,3.425,0,0,1,1.888,1.767,2.247,2.247,0,0,1-.047,1.961,6.68,6.68,0,0,1-.412.759Z" transform="translate(-103.189 -29.661)" fill="#ffe2b3"/>
        <path id="Trazado_1013420" data-name="Trazado 1013420" d="M102.975,51.4a2.221,2.221,0,0,1,1.784.822l-.117.28c-.367.088-.74.169-1.1.281-.558.173-.717.234-1,.752a4.652,4.652,0,0,0,1.212,2c.537.619.756.524,1.527.605A3,3,0,0,1,105.1,57l-.529.17a4.016,4.016,0,0,1-2.549-1.633,2.918,2.918,0,0,1-.654-2.261c.177-.955.833-1.389,1.6-1.877" transform="translate(-58.068 -29.455)" fill="#ffcb77"/>
        <path id="Trazado_1013421" data-name="Trazado 1013421" d="M118.406,65.153c-1.706-2.781-3.349-7.656-3-10.92l.527-.189c.757,1.489,3.163,9.338,2.66,10.734a3.324,3.324,0,0,1-.192.374" transform="translate(-66.106 -30.97)" fill="#fff"/>
        <path id="Trazado_1013422" data-name="Trazado 1013422" d="M173.333,17.154a12.833,12.833,0,0,1,3.748,9.461c-.023.844-.084,1.693-.157,2.534a23.786,23.786,0,0,1-3.538-.329c1.505-3.344.7-8.229-.053-11.666" transform="translate(-99.325 -9.83)" fill="#17c3b2"/>
        <path id="Trazado_1013423" data-name="Trazado 1013423" d="M133.193,97.858a10.641,10.641,0,0,0,8.586.242q.7-.272,1.391-.564c.06,4.545.362,9.078.411,13.624a69.238,69.238,0,0,1-5.285-5.575c-.473-1.43-3.27-5.439-4.553-6.167Z" transform="translate(-76.324 -55.891)" fill="#ffcb77"/>
        <path id="Trazado_1013424" data-name="Trazado 1013424" d="M104.62,23.057c-.034-.778-.057-1.557-.017-2.335q.019-.364.055-.727t.091-.723q.054-.361.126-.718t.161-.711q.09-.353.2-.7t.231-.691q.124-.343.265-.679t.3-.665q.157-.329.33-.65t.362-.633q.189-.311.393-.614t.423-.593q.219-.292.452-.573t.479-.549q.247-.269.506-.525t.531-.5c4.46-3.965,9.534-4.267,15.2-3.928-.24.517-.333.744-.895.933-1.271.428-2.77.551-4.089.873a15.34,15.34,0,0,0-9.752,6.793c-1.509,2.542-2.069,5.445-2.681,8.3a9.186,9.186,0,0,0-2.663-.384" transform="translate(-59.929 -3.689)" fill="#fff"/>
        <path id="Trazado_1013425" data-name="Trazado 1013425" d="M197.548,249.543c5.005-.014,10.021-.085,15.025-.007-.027,2.654-.02,5.314-.094,7.967-4.97.153-10.034-.275-14.978.064.067-2.671.036-5.351.047-8.024" transform="translate(-113.174 -142.972)" fill="#d05a58"/>
        <path id="Trazado_1013426" data-name="Trazado 1013426" d="M209.119,255.369a2.74,2.74,0,0,1,1.559.255,1.871,1.871,0,0,1,.837,1.38,3.653,3.653,0,0,1-.741,2.585,3.545,3.545,0,0,1-.825-.026,1.479,1.479,0,0,1-1.03-.895,4.717,4.717,0,0,1,.2-3.3" transform="translate(-119.588 -146.333)" fill="#06395f"/>
        <path id="Trazado_1013427" data-name="Trazado 1013427" d="M62.851,149.254a64.068,64.068,0,0,0,6.019,6.935q.324.3.655.591t.67.575q.339.283.684.558t.7.541q.352.266.71.524t.723.506q.364.249.735.488t.747.471q.376.231.758.452t.769.433q.387.212.779.414t.789.4q.4.193.8.376t.807.356q.406.173.816.336t.824.316q.414.153.832.3t.838.275q.421.133.845.255t.851.234q.427.112.857.213t.862.192q.432.091.865.171t.87.15q.436.07.873.129t.876.107q.439.048.878.086t.88.064q.44.027.881.043t.883.02q.441.005.883,0t.882-.022c9.53-.307,18.119-4.719,24.582-11.589a1.955,1.955,0,0,1-.105,1.692c-2.311,4.716-10.035,8.615-14.825,10.084q-.44.138-.883.264t-.889.242q-.446.115-.9.219t-.9.2q-.452.093-.905.175t-.909.152q-.455.07-.912.129t-.916.107q-.458.047-.918.084t-.92.061q-.46.025-.921.038t-.922.015q-.46,0-.922-.008t-.921-.031q-.46-.021-.92-.053t-.919-.077q-.459-.044-.916-.1t-.914-.123q-.456-.067-.91-.145t-.906-.167q-.452-.089-.9-.19t-.9-.212q-.447-.112-.892-.234t-.885-.257q-.441-.134-.879-.278t-.871-.3q-.434-.156-.864-.322t-.856-.343q-.426-.177-.847-.365t-.837-.386q-.416-.2-.827-.406t-.817-.427a42.692,42.692,0,0,1-13.311-11.51c-1.971,1.305-4.2,3.038-4.731,5.472-.824,3.784-.405,12.973-.433,17.179-.031,4.8-.465,10.009.032,14.764l-1.836.092-.048-20.706c0-3.631-.221-7.433.1-11.045a11.784,11.784,0,0,1,.679-3.183c1.055-2.735,4.167-3.926,6.653-4.988" transform="translate(-31.713 -85.527)" fill="#fff"/>
        <path id="Trazado_1013428" data-name="Trazado 1013428" d="M128.326,6.679c3.359.6,6.919,1.817,9.236,4.472.757,3.438,1.558,8.322.053,11.666a12.459,12.459,0,0,1-7.109-7.378c-.273-.739-.437-1.891-1.052-2.355-.616.075-.858.1-1.222.635-.864,1.274-1.281,2.849-2.114,4.147-1.824,2.842-5.963,5.011-9.139,5.843a9.417,9.417,0,0,1-6.071-.131c.613-2.855,1.172-5.758,2.681-8.3a15.34,15.34,0,0,1,9.752-6.793c1.319-.322,2.818-.445,4.089-.874.562-.189.655-.416.895-.933" transform="translate(-63.554 -3.827)" fill="#76dfcb"/>
        <path id="Trazado_1013429" data-name="Trazado 1013429" d="M116.71,42.658l1.751-.21a19.459,19.459,0,0,0,12.877-7.164q.423-.551.835-1.111c2.349,3.315,4.764,6.17,8.868,7.228-.278,5.984-1.957,11.643-6.523,15.79-1.836,1.667-4.247,3.085-6.806,2.935-3-.177-5.788-2.87-7.617-5.076a10,10,0,0,1-.917-1.284,3.326,3.326,0,0,0,.192-.374c.5-1.4-1.9-9.245-2.66-10.734" transform="translate(-66.879 -19.583)" fill="#ffcb77"/>
        <path id="Trazado_1013430" data-name="Trazado 1013430" d="M55.615,249.361c8.363.161,16.756.012,25.124.03l11.7.031,12.14-.012,11.658.053c-.011,2.672.021,5.353-.047,8.024-3.847.191-7.733.07-11.586.061l-12.874.019-10.96.038q-12.575-.076-25.151.023Z" transform="translate(-31.869 -142.892)" fill="#fe6d73"/>
        <path id="Trazado_1013431" data-name="Trazado 1013431" d="M184.275,254.952a2.624,2.624,0,0,1,1.481.67,2.332,2.332,0,0,1,.6,1.827,2.783,2.783,0,0,1-1.229,2,2.448,2.448,0,0,1-1.426-.523,2.292,2.292,0,0,1-.69-1.989,2.883,2.883,0,0,1,1.263-1.988" transform="translate(-104.863 -146.096)" fill="#06395f"/>
        <path id="Trazado_1013432" data-name="Trazado 1013432" d="M157.266,254.838a2.4,2.4,0,0,1,1.351.3,2.005,2.005,0,0,1,.82,1.4,3.745,3.745,0,0,1-1.1,2.993,1.717,1.717,0,0,1-1.3-.233,2.47,2.47,0,0,1-.7-1.787,3.167,3.167,0,0,1,.929-2.67" transform="translate(-89.585 -146.03)" fill="#06395f"/>
        <path id="Trazado_1013433" data-name="Trazado 1013433" d="M100.677,255a2.656,2.656,0,0,1,1.744.409,2.017,2.017,0,0,1,.757,1.64,3.3,3.3,0,0,1-1.236,2.5,2.067,2.067,0,0,1-1.582-.617,2.447,2.447,0,0,1-.65-1.748,2.694,2.694,0,0,1,.967-2.184" transform="translate(-57.137 -146.122)" fill="#06395f"/>
        <path id="Trazado_1013434" data-name="Trazado 1013434" d="M128.054,255.028a3,3,0,0,1,1.422.28,1.941,1.941,0,0,1,.908,1.324,3.566,3.566,0,0,1-1.063,2.9,1.989,1.989,0,0,1-1.523-.234,2.119,2.119,0,0,1-.842-1.718,3.1,3.1,0,0,1,1.1-2.549" transform="translate(-72.751 -146.139)" fill="#06395f"/>
        <path id="Trazado_1013435" data-name="Trazado 1013435" d="M74.38,254.343a2.061,2.061,0,0,1,1.58.8,2.949,2.949,0,0,1,.413,2.291,2.6,2.6,0,0,1-1.319,1.938,3.169,3.169,0,0,1-1.145-.542,2.378,2.378,0,0,1-.789-1.6,3.666,3.666,0,0,1,1.26-2.879" transform="translate(-41.896 -145.747)" fill="#06395f"/>
        <path id="Trazado_1013436" data-name="Trazado 1013436" d="M121.736,151.216l1-1.588c2.792.889,6.281,1.768,7.647,4.672a9.858,9.858,0,0,1,.772,3.3c.322,3.7.064,7.589.052,11.3l.009,20.621-50.4.05c-8.328-.019-16.888.357-25.186-.184l1.836-.092a18.886,18.886,0,0,0,.137-4c19.889.423,39.842.16,59.737.175,1.3-2.958,2.444-5.471,4.852-7.7a2.5,2.5,0,0,0,1.774-.3,4.738,4.738,0,0,0,.051-2.417c.453-1.143,1.235-2.193,1.749-3.32.886-1.944.978-4.928,1.155-7.052.307-3.68,1.02-8.98-1.634-11.93a4.1,4.1,0,0,0-3.551-1.538" transform="translate(-31.878 -85.742)" fill="#17c3b2"/>
        <path id="Trazado_1013437" data-name="Trazado 1013437" d="M79.462,118.719c3.747-1.751,7.566-3.367,11.323-5.106,2.01-.93,5.591-3,7.62-3.42a4.061,4.061,0,0,0,.927,2.215c.241.205.4.121.687.1,2.328-1.428.419-11.969,1.88-14.563l.505.146.55,1.56c1.283.728,4.08,4.737,4.553,6.167a69.236,69.236,0,0,0,5.285,5.574,3.465,3.465,0,0,0,.348.522,1.518,1.518,0,0,0,1.162.706c.677-.419.938-1.7,1.189-2.418.575-.043,16.342,7.717,18.621,8.7a33.486,33.486,0,0,1-9.624,9.69q-.343.22-.69.432t-.7.415q-.353.2-.711.4t-.72.379q-.362.185-.73.361t-.738.342q-.371.167-.747.324t-.754.3q-.379.148-.762.286t-.769.267q-.386.129-.775.248t-.781.228q-.393.11-.787.208t-.792.189q-.4.089-.8.169t-.8.149q-.4.07-.8.129t-.807.109q-.4.049-.809.089t-.811.068q-.406.029-.813.048t-.813.028q-.407.008-.814.007t-.814-.013q-.407-.012-.813-.033t-.812-.054q-.405-.031-.811-.074t-.808-.094q-.4-.052-.806-.114t-.8-.134q-.4-.072-.8-.155t-.8-.175q-.769-.174-1.528-.386t-1.506-.46q-.748-.248-1.482-.534t-1.454-.606q-.719-.321-1.423-.677t-1.387-.746q-.685-.39-1.349-.813t-1.307-.879q-.643-.455-1.263-.942t-1.215-1q-.595-.517-1.164-1.062t-1.11-1.118q-.541-.573-1.054-1.171t-1-1.222q-.482-.623-.933-1.269t-.87-1.313" transform="translate(-45.534 -56.127)" fill="#fff"/>
        <path id="Trazado_1013438" data-name="Trazado 1013438" d="M134.482,101.945c1.283.728,4.08,4.737,4.553,6.167a10.763,10.763,0,0,1-4.553-6.167" transform="translate(-77.062 -58.418)" fill="#ffe2b3"/>
        <path id="Trazado_1013439" data-name="Trazado 1013439" d="M123.883,153.347a4.1,4.1,0,0,1,3.551,1.538c2.654,2.951,1.941,8.25,1.634,11.93-.177,2.125-.269,5.108-1.155,7.052-.514,1.127-1.3,2.177-1.749,3.32a4.738,4.738,0,0,1-.051,2.417,2.5,2.5,0,0,1-1.774.3c-2.408,2.226-3.555,4.74-4.852,7.7-19.9-.016-39.849.247-59.737-.175a18.885,18.885,0,0,1-.137,4c-.5-4.755-.063-9.968-.032-14.764.027-4.206-.392-13.4.433-17.179.53-2.435,2.759-4.167,4.731-5.472a42.693,42.693,0,0,0,13.311,11.51q.406.218.817.427t.827.406q.416.2.837.386t.847.365q.426.177.856.343t.864.322q.434.156.871.3t.879.278q.441.134.885.257t.892.234q.448.112.9.212t.9.19q.452.089.906.167t.91.145q.456.067.914.123t.916.1q.459.044.919.077t.92.053q.46.021.921.031t.922.008q.461,0,.922-.015t.921-.038q.46-.025.92-.061t.918-.084q.459-.048.916-.107t.913-.129q.455-.07.909-.152t.905-.175q.452-.093.9-.2t.9-.219q.446-.115.889-.242t.883-.264c4.79-1.468,12.514-5.367,14.825-10.084a1.955,1.955,0,0,0,.105-1.692,36.327,36.327,0,0,1,2.3-3.142" transform="translate(-34.024 -87.873)" fill="#76dfcb"/>
        <path id="Trazado_1013440" data-name="Trazado 1013440" d="M188.917,198.581l-10.087.085a40.42,40.42,0,0,1-6.158-.129,1.458,1.458,0,0,1-.6-1.134c.319-1.047,1.45-1.534,2.037-2.507,1.2-2,3.034-7.781,5.124-8.748a2.153,2.153,0,0,1,1.62-.1c3.481,1.041,5.748,6.83,7.274,9.8l2.614.012a4.737,4.737,0,0,1-.051,2.417,2.5,2.5,0,0,1-1.774.3" transform="translate(-98.603 -106.547)" fill="#06395f"/>
        <path id="Trazado_1013441" data-name="Trazado 1013441" d="M185.63,191.728a2.511,2.511,0,0,1,.264.066c1.707.634,4.221,6,5.06,7.651l-3.93-.012c-1.922-.009-3.847.04-5.77.064,1.527-2.563,2.649-5.313,4.376-7.77" transform="translate(-103.864 -109.866)" fill="#fe6d73"/>
        <path id="Trazado_1013442" data-name="Trazado 1013442" d="M173.168,37.855c2.915,1.183,5.96,2.275,8.741,3.743q1.1.589,2.182,1.223t2.127,1.316q1.05.681,2.069,1.406t2.007,1.494q.988.769,1.941,1.578t1.871,1.66q.918.85,1.8,1.739t1.722,1.815q.842.925,1.643,1.887t1.56,1.956q.759.995,1.475,2.021t1.386,2.082q.671,1.056,1.3,2.14t1.2,2.194q.578,1.11,1.107,2.243t1.01,2.289q.282.686.547,1.378t.514,1.391q.248.7.48,1.4t.446,1.415q.215.71.412,1.425t.377,1.435q.179.719.342,1.443t.307,1.451q.144.728.271,1.458t.236,1.465q.109.733.2,1.47t.164,1.474q.074.738.129,1.478t.093,1.48q.037.74.057,1.482t.02,1.483q0,.742-.015,1.483t-.051,1.482q-.035.741-.087,1.481t-.123,1.478q-.07.738-.159,1.474t-.2,1.47q-.106.734-.23,1.465t-.266,1.459q-.142.728-.3,1.452t-.336,1.445q-.177.72-.371,1.436t-.406,1.427q-.212.71-.441,1.416t-.475,1.405q-.247.7-.509,1.393t-.543,1.38q-.441,1.091-.931,2.161t-1.028,2.117q-.539,1.047-1.124,2.068t-1.216,2.014q-.631.993-1.307,1.957t-1.395,1.9q-.719.932-1.48,1.83t-1.561,1.761a10.8,10.8,0,0,1-3.064,2.648,1.96,1.96,0,0,1-.508.131c-.169-3.325-.053-6.717-.07-10.051l-.047-19.469c.012-4.373.615-11.286-.522-15.273a9.284,9.284,0,0,0-3.155-4.731c-2.481-1.907-9.076-4.126-12.153-5.489-5.5-2.437-11.029-5.077-16.335-7.912-.218-3.694-.336-7.408-.454-11.107a29.384,29.384,0,0,0,5.893-8.811c2.05-.251,3.623-.6,5.13-2.154a6.2,6.2,0,0,0,1.814-4.49,5.467,5.467,0,0,0-1.9-3.851c.132-1.426.143-2.873.193-4.3" transform="translate(-92.854 -21.692)" fill="#feb3b1"/>
      </g>
    </g>
  </g>
</svg>
