<svg xmlns="http://www.w3.org/2000/svg" width="84" height="84" viewBox="0 0 84 84">
  <g id="Grupo_1195128" data-name="Grupo 1195128" transform="translate(-706 -5519)">
    <g id="Grupo_1195098" data-name="Grupo 1195098" transform="translate(0 4025)">
      <g id="Grupo_1194893" data-name="Grupo 1194893" transform="translate(706 1494)" style="isolation: isolate">
        <g id="Grupo_1119665" data-name="Grupo 1119665">
          <rect id="Rectángulo_402006" data-name="Rectángulo 402006" width="84" height="84" rx="5" fill="#104936"/>
        </g>
      </g>
      <g id="Grupo_1195093" data-name="Grupo 1195093" transform="translate(507.534 1121.283)">
        <path id="Trazado_1014849" data-name="Trazado 1014849" d="M217.072,419.33v2.262c.881.112,2.052-.185,2.143,1.193.048.731-.522,1.015-2.145,1.137-.019.3-.054.615-.056.931-.007,1.42.009,2.84-.008,4.26-.011.919-.456,1.442-1.157,1.426s-1.1-.542-1.1-1.473c-.008-1.687,0-3.374,0-5.1-.907-.216-2.252.181-2.178-1.3.064-1.269,1.221-.967,2.1-1.06v-2.186c-.3-.014-.617-.04-.934-.041-1.782,0-3.565.006-5.347-.006-1.131-.007-1.454-.333-1.457-1.465q-.011-4.169,0-8.338a7.854,7.854,0,0,1,7.4-8.008c.089-.008.177-.028.4-.064a19.309,19.309,0,0,0-.029-2.112c-.023-.214-.372-.421-.607-.579a3.339,3.339,0,0,1,2.017-6.154,3.332,3.332,0,0,1,2.019,5.785c-1.257,1.156-1.259,1.162-1.048,3.044h7.741c0-1.031-.016-2.05.005-3.068.016-.8.368-1.218,1-1.271a1.075,1.075,0,0,1,1.2,1.155c.029,1.049.007,2.1.007,3.2h8.884v-2.155h-2.494c-1.748,0-2.063-.36-1.734-2.045.635-3.257,1.294-6.509,1.932-9.765.268-1.367.438-1.525,1.838-1.566.119,0,.237-.02.513-.044q0-.881,0-1.765c0-.453-.013-.907.005-1.359a1.225,1.225,0,0,1,1.1-1.317,1.239,1.239,0,0,1,1.172,1.345c.024.724,0,1.45.009,2.175,0,.295.028.589.042.87,2.113.268,1.927-.064,2.423,2.411.6,3.017,1.226,6.03,1.823,9.048.32,1.619-.022,2.009-1.7,2.013-.814,0-1.627,0-2.516,0v2.212h2.934c.332,0,.665-.007,1,0,1.115.031,1.551.672,1.216,1.754a17.065,17.065,0,0,0-.641,2.255,10.028,10.028,0,0,0,7.788,11.377c5.647,1.033,10.819-2.24,11.905-7.661a18.156,18.156,0,0,0,.065-4.028c-.016-.571-.064-1.1.472-1.45a1.2,1.2,0,0,1,1.5.186,12.226,12.226,0,0,1,4.729,7.581c.069.35.143.7.235,1.144.383,0,.739-.012,1.093,0a3.317,3.317,0,0,1,3.37,3.405c.024,1.45.027,2.9,0,4.35a3.347,3.347,0,0,1-3.393,3.392c-.324.008-.648,0-1.007,0a5.729,5.729,0,0,0-.075.614c0,2.714,0,5.428,0,8.244.415.02.762.04,1.11.053A3.349,3.349,0,0,1,274,436.194q.023,1.042,0,2.084a3.282,3.282,0,0,1-3.364,3.394c-.722.007-1.11.136-1.333.918a2.127,2.127,0,0,1-2.151,1.354,2.286,2.286,0,0,1-1.986-1.617c-.053-.17-.079-.349-.129-.575H215.952c-.491,1.514-1.212,2.194-2.308,2.2s-1.844-.7-2.367-2.265c-.347,0-.733.017-1.118,0a3.3,3.3,0,0,1-3.215-3.182,25.087,25.087,0,0,1,0-2.537,3.318,3.318,0,0,1,3.137-3.172c.331-.025.664-.014,1-.014h22.3c1.309,0,1.309,0,1.795-1.243a12.2,12.2,0,0,0-9.831-16.476c-.177-.022-.356-.021-.607-.035C223.572,418.841,220.681,419.73,217.072,419.33Zm20.091,13.394H267.24c.018-.284.044-.518.045-.752q0-9.059-.007-18.118a9.971,9.971,0,0,0-.183-1.98,9.021,9.021,0,0,0-1.952-4.159,12.461,12.461,0,0,1-13.976,11.571,12.065,12.065,0,0,1-7.343-3.763,12.3,12.3,0,0,1-2.958-11.681H224.9v8.881a14.455,14.455,0,0,1,11.179,6.917A14.309,14.309,0,0,1,237.164,432.724Zm3.31,6.731h29.271c.272,0,.544.011.815,0a1.135,1.135,0,0,0,1.225-1.172,17.593,17.593,0,0,0,0-2.083,1.1,1.1,0,0,0-1.145-1.153c-.362-.016-.725-.013-1.087-.013H211.736c-2.6,0-2.6,0-2.6,2.626,0,1.513.286,1.8,1.793,1.8Zm-17.9-35.666c-2.658,0-5.16-.024-7.661.006a5.621,5.621,0,0,0-5.773,5.795c-.024,2.295-.006,4.59,0,6.885,0,.2.035.406.058.649.31.016.575.041.84.041,2.959,0,5.919.008,8.878,0a3.341,3.341,0,0,0,3.656-3.66c.015-2.868,0-5.737,0-8.606Zm11.449-6.752h6.186l-1.774-8.808h-2.651Zm35.5,17.931v6.561c1.827.284,2.277-.095,2.279-1.786,0-1.146.018-2.292-.007-3.437-.02-.933-.418-1.312-1.328-1.338C270.2,414.961,269.928,414.968,269.521,414.968ZM215.91,397.081a1.112,1.112,0,0,0,1.075-1.111,1.115,1.115,0,1,0-1.075,1.111Z" transform="translate(0)" fill="#c0f1e1"/>
        <path id="Trazado_1014850" data-name="Trazado 1014850" d="M416.781,487.855a7.812,7.812,0,0,1,15.625-.063,7.812,7.812,0,1,1-15.625.063Zm7.82,5.533a5.572,5.572,0,1,0-5.586-5.576A5.574,5.574,0,0,0,424.6,493.388Z" transform="translate(-171.822 -80.685)" fill="#c0f1e1"/>
        <path id="Trazado_1014851" data-name="Trazado 1014851" d="M342.882,520.241a3.233,3.233,0,0,1,3.453-3.176,3.34,3.34,0,0,1,3.238,3.349,3.388,3.388,0,0,1-3.5,3.289A3.28,3.28,0,0,1,342.882,520.241Zm3.354-.969a1.144,1.144,0,0,0-1.159,1.032,1.106,1.106,0,0,0,1.119,1.148,1.045,1.045,0,0,0,1.092-1.065A1.078,1.078,0,0,0,346.236,519.272Z" transform="translate(-111.319 -111.002)" fill="#c0f1e1"/>
        <path id="Trazado_1014852" data-name="Trazado 1014852" d="M399.31,642.084h-5.433c-.211,0-.423.01-.634-.006a1.137,1.137,0,0,1-1.177-1.116c.006-.62.456-1.035,1.2-1.1.18-.015.362-.008.543-.008h11.047c.151,0,.3-.005.453,0,.826.053,1.257.442,1.248,1.123s-.442,1.086-1.272,1.093C403.294,642.1,401.3,642.083,399.31,642.084Z" transform="translate(-151.589 -211.535)" fill="#c0f1e1"/>
        <path id="Trazado_1014853" data-name="Trazado 1014853" d="M515.333,582.823c0-1.027-.015-2.054,0-3.081.016-.866.451-1.37,1.123-1.361s1.118.523,1.126,1.383q.028,3.081,0,6.162c-.009.862-.464,1.351-1.148,1.346s-1.085-.478-1.1-1.367C515.319,584.877,515.333,583.85,515.333,582.823Z" transform="translate(-252.504 -161.204)" fill="#c0f1e1"/>
        <path id="Trazado_1014854" data-name="Trazado 1014854" d="M394.272,607.461a2.214,2.214,0,0,1-.045-4.427,2.214,2.214,0,1,1,.045,4.427Z" transform="translate(-151.566 -181.388)" fill="#c0f1e1"/>
        <path id="Trazado_1014855" data-name="Trazado 1014855" d="M433.546,605.212a2.222,2.222,0,1,1-2.277-2.183A2.2,2.2,0,0,1,433.546,605.212Z" transform="translate(-181.911 -181.384)" fill="#c0f1e1"/>
        <path id="Trazado_1014856" data-name="Trazado 1014856" d="M486.87,642.1a11.194,11.194,0,0,1-1.174-.008,1.031,1.031,0,0,1-1.024-1.056.971.971,0,0,1,.95-1.105,18.4,18.4,0,0,1,2.525,0,.963.963,0,0,1,.933,1.032,1.007,1.007,0,0,1-.947,1.119,10.017,10.017,0,0,1-1.263.01Z" transform="translate(-227.405 -211.557)" fill="#c0f1e1"/>
        <path id="Trazado_1014857" data-name="Trazado 1014857" d="M319.024,531.392A1.087,1.087,0,0,1,318,530.238a1.111,1.111,0,1,1,2.215.177A1.079,1.079,0,0,1,319.024,531.392Z" transform="translate(-90.948 -120.943)" fill="#c0f1e1"/>
        <path id="Trazado_1014858" data-name="Trazado 1014858" d="M468.26,610.307a1.058,1.058,0,0,1-1.12,1.049,1.1,1.1,0,1,1,.084-2.188A1.088,1.088,0,0,1,468.26,610.307Z" transform="translate(-212.166 -186.409)" fill="#c0f1e1"/>
        <path id="Trazado_1014859" data-name="Trazado 1014859" d="M491.852,609.174a1.1,1.1,0,1,1-.043,2.19,1.066,1.066,0,0,1-1.059-1.113A1.088,1.088,0,0,1,491.852,609.174Z" transform="translate(-232.382 -186.415)" fill="#c0f1e1"/>
        <path id="Trazado_1014860" data-name="Trazado 1014860" d="M258.577,521.563c-1.779-.185-2.234-.433-2.238-1.16,0-.746.491-1.022,2.188-1.172.021-.365.025-.746.067-1.123a1.1,1.1,0,0,1,2.2.016q.047,3.391,0,6.784a1.1,1.1,0,0,1-2.208-.049c-.021-.542-.011-1.085-.013-1.628S258.577,522.155,258.577,521.563Z" transform="translate(-40.466 -111.03)" fill="#c0f1e1"/>
        <path id="Trazado_1014861" data-name="Trazado 1014861" d="M231.748,532.59c0-.721-.02-1.444.005-2.164a1.085,1.085,0,0,1,1.09-1.175,1.107,1.107,0,0,1,1.123,1.161q.043,2.164,0,4.329a1.175,1.175,0,0,1-1.111,1.195,1.144,1.144,0,0,1-1.1-1.181C231.728,534.034,231.748,533.312,231.748,532.59Z" transform="translate(-20.327 -120.981)" fill="#c0f1e1"/>
        <path id="Trazado_1014862" data-name="Trazado 1014862" d="M449.849,515.114a2.192,2.192,0,0,1-2.155-2.3,2.206,2.206,0,1,1,2.155,2.3Z" transform="translate(-197.13 -105.747)" fill="#c0f1e1"/>
      </g>
    </g>
  </g>
</svg>
