<svg xmlns="http://www.w3.org/2000/svg" width="84" height="84" viewBox="0 0 84 84">
  <g id="Grupo_1195126" data-name="Grupo 1195126" transform="translate(-706 -1494)">
    <g id="Grupo_1195097" data-name="Grupo 1195097" transform="translate(0 -4013)">
      <g id="Grupo_1194903" data-name="Grupo 1194903" transform="translate(706 5507)" style="isolation: isolate">
        <g id="Grupo_1119665" data-name="Grupo 1119665">
          <rect id="Rectángulo_402006" data-name="Rectángulo 402006" width="84" height="84" rx="5" fill="#104936"/>
        </g>
      </g>
      <g id="Grupo_1195095" data-name="Grupo 1195095" transform="translate(554.767 5151.158)">
        <path id="Trazado_1014863" data-name="Trazado 1014863" d="M179.052,392.163c.458-2.739,1.745-3.812,4.522-3.813,2,0,4,.014,6.006-.01a1.856,1.856,0,0,0,1.837-1.559,1.816,1.816,0,0,0-1.006-1.978,3.98,3.98,0,0,0-1.425-.225q-10.9-.02-21.79,0a3.948,3.948,0,0,1-3.631-1.753,3.782,3.782,0,0,1,3.074-5.832c.281-.019.564-.008.847-.008H199.97a7.591,7.591,0,0,1,3.375-6.267,7.348,7.348,0,0,1,4.891-1.274,7.679,7.679,0,0,1,7,7.541h2.188c.513,0,1.029-.025,1.539.014a.9.9,0,0,1,.951.989.876.876,0,0,1-.976.874c-.949.012-1.9.008-2.849.01h-.905c0,1.427.021,2.755-.005,4.082-.033,1.664-.011,3.337-.187,4.987a6.833,6.833,0,0,1-2.3,4.156,1.664,1.664,0,0,0-.49.949c-.366,4.088-.69,8.18-1.035,12.27q-.67,7.936-1.351,15.872c-.086,1.023-.121,2.05-.221,3.071a2,2,0,0,1-1.3,1.838,1.778,1.778,0,0,1-2.05-.431,2.216,2.216,0,0,1-.59-1.2c-.445-4.931-.844-9.866-1.258-14.8q-.705-8.4-1.431-16.792a1.2,1.2,0,0,0-.381-.694A7.633,7.633,0,0,1,200,386.228c.027-2.409.006-4.818.006-7.313-.328-.018-.6-.045-.87-.045q-15.939,0-31.877,0c-.154,0-.308,0-.462.006a1.9,1.9,0,1,0,.105,3.8q11.2.009,22.407,0a3.782,3.782,0,1,1,.442,7.551c-2.231.067-4.466.009-6.7.028-1.239.011-1.846.582-2.044,1.9a17.009,17.009,0,0,1,13.728,8.38,16.508,16.508,0,0,1,2.054,12.15,17.1,17.1,0,1,1-17.743-20.521Zm16.2,17.034a15.211,15.211,0,1,0-15.205,15.175A15.2,15.2,0,0,0,195.252,409.2Zm8.4-32.259a12.182,12.182,0,0,1,.616-1.758,3.786,3.786,0,0,1,4.18-1.891,3.685,3.685,0,0,1,2.9,3.539c.044,3.259.022,6.519,0,9.778a3.491,3.491,0,0,1-.248,1.272,3.8,3.8,0,0,1-4.242,2.314,3.862,3.862,0,0,1-3.081-3.736c-.027-1.95-.007-3.9-.008-5.852,0-.555,0-1.11,0-1.672h-1.864c0,2.422.032,4.782-.01,7.141a5.885,5.885,0,0,0,2.352,5.017,1.636,1.636,0,0,1,.576,1.012c.392,4.317.741,8.639,1.1,12.959q.646,7.784,1.289,15.569.143,1.731.281,3.462a.548.548,0,0,0,.228-.412q.722-8.55,1.438-17.1c.4-4.78.813-9.559,1.2-14.34a1.632,1.632,0,0,1,.693-1.28,5.464,5.464,0,0,0,2.235-4.443c.029-3.208.039-6.417,0-9.625a5.687,5.687,0,0,0-6.849-5.461,5.522,5.522,0,0,0-4.466,5.509Zm2.088,1.964c-.022.276-.051.477-.051.678,0,2.207-.01,4.414,0,6.621a1.9,1.9,0,1,0,3.778,0q.01-3.349,0-6.7a6,6,0,0,0-.061-.6Zm3.686-1.959a1.8,1.8,0,0,0-1.966-1.828,1.724,1.724,0,0,0-1.686,1.828Z" transform="translate(0 0)" fill="#c0f1e1"/>
        <path id="Trazado_1014864" data-name="Trazado 1014864" d="M195.606,560.415a10.023,10.023,0,0,0,1.065,4c.1.206.209.411.314.616.338.661.237,1.174-.286,1.46s-1.017.092-1.385-.563a11.648,11.648,0,0,1-1.532-7.254,12.361,12.361,0,0,1,18.361-9.507c.547.3.82.746.5,1.332a.939.939,0,0,1-1.4.329c-.069-.034-.136-.072-.2-.109a10.276,10.276,0,0,0-5.63-1.237C199.914,549.8,195.6,554.378,195.606,560.415Z" transform="translate(-26.015 -150.682)" fill="#c0f1e1"/>
        <path id="Trazado_1014865" data-name="Trazado 1014865" d="M249.62,590.793a12.369,12.369,0,0,1-18.239,10.753c-.73-.4-.97-.934-.664-1.476.294-.521.8-.576,1.539-.2a10.1,10.1,0,0,0,11.107-.713A9.926,9.926,0,0,0,247.556,589a14.535,14.535,0,0,0-1.193-3.382c-.252-.593-.37-1.083.221-1.478.514-.344,1.1-.08,1.487.622A12.24,12.24,0,0,1,249.62,590.793Z" transform="translate(-57.225 -181.53)" fill="#c0f1e1"/>
        <path id="Trazado_1014866" data-name="Trazado 1014866" d="M227.578,590.346a2.811,2.811,0,0,1-2.867-2.8,2.844,2.844,0,0,1,5.687-.053A2.815,2.815,0,0,1,227.578,590.346Zm-.02-3.736a.876.876,0,0,0-.938.89.912.912,0,0,0,.957.961.88.88,0,0,0,.9-.941A.855.855,0,0,0,227.558,586.609Z" transform="translate(-52.254 -182.119)" fill="#c0f1e1"/>
        <path id="Trazado_1014867" data-name="Trazado 1014867" d="M289.239,590.347a2.809,2.809,0,0,1-2.851-2.813,2.836,2.836,0,1,1,5.673-.02A2.79,2.79,0,0,1,289.239,590.347Zm.021-3.734a.841.841,0,0,0-.942.874.871.871,0,0,0,.852.973.906.906,0,0,0,.984-.926A.861.861,0,0,0,289.26,586.613Z" transform="translate(-104.432 -182.12)" fill="#c0f1e1"/>
        <path id="Trazado_1014868" data-name="Trazado 1014868" d="M292.076,642.974a2.835,2.835,0,1,1-2.8-2.854A2.806,2.806,0,0,1,292.076,642.974Zm-1.892-.018c-.061-.551-.329-.925-.907-.94a.85.85,0,0,0-.943.88.882.882,0,0,0,.921.98A.915.915,0,0,0,290.184,642.957Z" transform="translate(-104.448 -229.017)" fill="#c0f1e1"/>
        <path id="Trazado_1014869" data-name="Trazado 1014869" d="M227.6,640.12a2.834,2.834,0,1,1-2.877,2.789A2.832,2.832,0,0,1,227.6,640.12Zm.9,2.786a.9.9,0,0,0-.954-.889.871.871,0,0,0-.915.925.9.9,0,0,0,.981.935A.917.917,0,0,0,228.5,642.906Z" transform="translate(-52.266 -229.017)" fill="#c0f1e1"/>
      </g>
    </g>
  </g>
</svg>
